# Blender v2.93.3 OBJ File: ''
# www.blender.org
o SketchUp_ID3
v 0.332234 0.000000 -0.029455
v 0.000000 0.000000 0.000000
v 0.660225 0.000000 -0.090029
v 0.981064 0.000000 -0.181187
v 1.291905 0.000000 -0.302120
v 1.589994 0.000000 -0.451754
v 1.872685 0.000000 -0.628764
v 2.137474 0.000000 -0.831580
v 2.382011 0.000000 -1.058404
v 2.604127 0.000000 -1.307223
v 2.801856 0.000000 -1.575832
v 2.973441 0.000000 -1.861849
v 3.117362 0.000000 -2.162738
v 0.000000 0.000000 0.000000
v 0.000000 2.316163 0.000000
v 3.117362 0.000000 -2.162738
v 3.117362 2.316163 -2.162738
v 0.332234 2.316163 -0.029455
v 0.000000 2.316163 0.000000
v 0.660225 2.316163 -0.090029
v 0.981064 2.316163 -0.181187
v 1.291905 2.316163 -0.302120
v 1.589994 2.316163 -0.451754
v 1.872685 2.316163 -0.628764
v 2.137474 2.316163 -0.831580
v 2.382011 2.316163 -1.058404
v 2.604127 2.316163 -1.307223
v 2.801856 2.316163 -1.575832
v 2.973441 2.316163 -1.861849
v 3.117362 2.316163 -2.162738
v 2.973441 0.000000 -1.861849
v 3.117362 2.316163 -2.162738
v 2.973441 2.316163 -1.861849
v 3.117362 0.000000 -2.162738
v 2.801856 0.000000 -1.575832
v 2.801856 2.316163 -1.575832
v 2.604127 0.000000 -1.307223
v 2.604127 2.316163 -1.307223
v 2.382011 0.000000 -1.058404
v 2.382011 2.316163 -1.058404
v 2.137474 2.316163 -0.831580
v 2.137474 0.000000 -0.831580
v 1.872685 2.316163 -0.628764
v 1.872685 0.000000 -0.628764
v 1.589994 2.316163 -0.451754
v 1.589994 0.000000 -0.451754
v 1.291905 0.000000 -0.302120
v 1.291905 2.316163 -0.302120
v 0.981064 0.000000 -0.181187
v 0.981064 2.316163 -0.181187
v 0.660225 0.000000 -0.090029
v 0.660225 2.316163 -0.090029
v 0.332234 0.000000 -0.029455
v 0.332234 2.316163 -0.029455
v 0.000000 0.000000 0.000000
v 0.000000 2.316163 0.000000
vn 0.8808 0.0000 0.4735
vn 0.9021 0.0000 0.4315
vn 0.8324 0.0000 0.5542
vn 0.7765 -0.0000 0.6301
vn 0.7138 0.0000 0.7003
vn 0.6448 -0.0000 0.7644
vn 0.5700 -0.0000 0.8216
vn 0.4902 -0.0000 0.8716
vn 0.4061 -0.0000 0.9138
vn 0.3183 -0.0000 0.9480
vn 0.2277 -0.0000 0.9737
vn 0.1351 -0.0000 0.9908
vn 0.0883 -0.0000 0.9961
usemtl material
s 1
f 31//1 32//2 33//1
f 32//2 31//1 34//2
f 35//3 33//1 36//3
f 33//1 35//3 31//1
f 37//4 36//3 38//4
f 36//3 37//4 35//3
f 39//5 38//4 40//5
f 38//4 39//5 37//4
f 39//5 41//6 42//6
f 41//6 39//5 40//5
f 42//6 43//7 44//7
f 43//7 42//6 41//6
f 44//7 45//8 46//8
f 45//8 44//7 43//7
f 45//8 47//9 46//8
f 47//9 45//8 48//9
f 48//9 49//10 47//9
f 49//10 48//9 50//10
f 50//10 51//11 49//10
f 51//11 50//10 52//11
f 52//11 53//12 51//11
f 53//12 52//11 54//12
f 54//12 55//13 53//12
f 55//13 54//12 56//13
l 3 4
l 1 3
l 5 6
l 7 8
l 1 2
l 11 12
l 21 22
l 23 24
l 25 26
l 27 28
l 29 30
l 9 10
l 18 19
l 18 20
l 20 21
l 4 5
l 6 7
l 8 9
l 10 11
l 12 13
l 14 15
l 16 17
l 22 23
l 24 25
l 26 27
l 28 29
