solid AssimpScene
 facet normal 0.888119101524353 0 0.4596133828163147
  outer loop
  vertex 2.973441123962402 0 -1.861849069595337
  vertex 3.117362022399902 2.316163063049316 -2.162738084793091
  vertex 2.973441123962402 2.316163063049316 -1.861849069595337
  endloop
 endfacet

 facet normal 0.8952259421348572 0 0.4456124305725098
  outer loop
  vertex 3.117362022399902 2.316163063049316 -2.162738084793091
  vertex 2.973441123962402 0 -1.861849069595337
  vertex 3.117362022399902 0 -2.162738084793091
  endloop
 endfacet

 facet normal 0.8493601679801941 0 0.527813732624054
  outer loop
  vertex 2.80185604095459 0 -1.575832009315491
  vertex 2.973441123962402 2.316163063049316 -1.861849069595337
  vertex 2.80185604095459 2.316163063049316 -1.575832009315491
  endloop
 endfacet

 facet normal 0.8655115962028503 0 0.5008889436721802
  outer loop
  vertex 2.973441123962402 2.316163063049316 -1.861849069595337
  vertex 2.80185604095459 0 -1.575832009315491
  vertex 2.973441123962402 0 -1.861849069595337
  endloop
 endfacet

 facet normal 0.7959216833114624 0 0.6053996086120605
  outer loop
  vertex 2.604126930236816 0 -1.307222962379456
  vertex 2.80185604095459 2.316163063049316 -1.575832009315491
  vertex 2.604126930236816 2.316163063049316 -1.307222962379456
  endloop
 endfacet

 facet normal 0.8145667910575867 0 0.5800697207450867
  outer loop
  vertex 2.80185604095459 2.316163063049316 -1.575832009315491
  vertex 2.604126930236816 0 -1.307222962379456
  vertex 2.80185604095459 0 -1.575832009315491
  endloop
 endfacet

 facet normal 0.7354440093040466 0 0.6775854825973511
  outer loop
  vertex 2.382010936737061 0 -1.058403968811035
  vertex 2.604126930236816 2.316163063049316 -1.307222962379456
  vertex 2.382010936737061 2.316163063049316 -1.058403968811035
  endloop
 endfacet

 facet normal 0.7563591599464417 0 0.6541566252708435
  outer loop
  vertex 2.604126930236816 2.316163063049316 -1.307222962379456
  vertex 2.382010936737061 0 -1.058403968811035
  vertex 2.604126930236816 0 -1.307222962379456
  endloop
 endfacet

 facet normal 0.6684502959251404 0 0.743756890296936
  outer loop
  vertex 2.382010936737061 0 -1.058403968811035
  vertex 2.137474060058594 2.316163063049316 -0.8315799832344055
  vertex 2.137474060058594 0 -0.8315799832344055
  endloop
 endfacet

 facet normal 0.6914892792701721 0 0.7223867177963257
  outer loop
  vertex 2.137474060058594 2.316163063049316 -0.8315799832344055
  vertex 2.382010936737061 0 -1.058403968811035
  vertex 2.382010936737061 2.316163063049316 -1.058403968811035
  endloop
 endfacet

 facet normal 0.5955275893211365 0 0.8033349514007568
  outer loop
  vertex 2.137474060058594 0 -0.8315799832344055
  vertex 1.872684955596924 2.316163063049316 -0.6287639737129211
  vertex 1.872684955596924 0 -0.6287639737129211
  endloop
 endfacet

 facet normal 0.6204705238342285 0 0.7842298150062561
  outer loop
  vertex 1.872684955596924 2.316163063049316 -0.6287639737129211
  vertex 2.137474060058594 0 -0.8315799832344055
  vertex 2.137474060058594 2.316163063049316 -0.8315799832344055
  endloop
 endfacet

 facet normal 0.5173193216323853 0 0.8557924628257751
  outer loop
  vertex 1.872684955596924 0 -0.6287639737129211
  vertex 1.589993953704834 2.316163063049316 -0.4517540037631989
  vertex 1.589993953704834 0 -0.4517540037631989
  endloop
 endfacet

 facet normal 0.5439510941505432 0 0.8391168713569641
  outer loop
  vertex 1.589993953704834 2.316163063049316 -0.4517540037631989
  vertex 1.872684955596924 0 -0.6287639737129211
  vertex 1.872684955596924 2.316163063049316 -0.6287639737129211
  endloop
 endfacet

 facet normal 0.4626287519931793 0 0.886552095413208
  outer loop
  vertex 1.589993953704834 2.316163063049316 -0.4517540037631989
  vertex 1.291904926300049 0 -0.3021200001239777
  vertex 1.589993953704834 0 -0.4517540037631989
  endloop
 endfacet

 facet normal 0.4345698952674866 0 0.9006381034851074
  outer loop
  vertex 1.291904926300049 0 -0.3021200001239777
  vertex 1.589993953704834 2.316163063049316 -0.4517540037631989
  vertex 1.291904926300049 2.316163063049316 -0.3021200001239777
  endloop
 endfacet

 facet normal 0.3772110939025879 0 0.9261273741722107
  outer loop
  vertex 1.291904926300049 2.316163063049316 -0.3021200001239777
  vertex 0.9810640215873718 0 -0.1811870038509369
  vertex 1.291904926300049 0 -0.3021200001239777
  endloop
 endfacet

 facet normal 0.3479109108448029 0 0.937527596950531
  outer loop
  vertex 0.9810640215873718 0 -0.1811870038509369
  vertex 1.291904926300049 2.316163063049316 -0.3021200001239777
  vertex 0.9810640215873718 2.316163063049316 -0.1811870038509369
  endloop
 endfacet

 facet normal 0.288385421037674 0 0.9575143456459045
  outer loop
  vertex 0.9810640215873718 2.316163063049316 -0.1811870038509369
  vertex 0.660224974155426 0 -0.09002900123596191
  vertex 0.9810640215873718 0 -0.1811870038509369
  endloop
 endfacet

 facet normal 0.258158951997757 0 0.9661024808883667
  outer loop
  vertex 0.660224974155426 0 -0.09002900123596191
  vertex 0.9810640215873718 2.316163063049316 -0.1811870038509369
  vertex 0.660224974155426 2.316163063049316 -0.09002900123596191
  endloop
 endfacet

 facet normal 0.1970336586236954 0 0.9803967475891113
  outer loop
  vertex 0.660224974155426 2.316163063049316 -0.09002900123596191
  vertex 0.3322339951992035 0 -0.02945500053465366
  vertex 0.660224974155426 0 -0.09002900123596191
  endloop
 endfacet

 facet normal 0.1661356389522552 0 0.9861029386520386
  outer loop
  vertex 0.3322339951992035 0 -0.02945500053465366
  vertex 0.660224974155426 2.316163063049316 -0.09002900123596191
  vertex 0.3322339951992035 2.316163063049316 -0.02945500053465366
  endloop
 endfacet

 facet normal 0.1195317506790161 0 0.9928304553031921
  outer loop
  vertex 0.3322339951992035 2.316163063049316 -0.02945500053465366
  vertex 0 0 0
  vertex 0.3322339951992035 0 -0.02945500053465366
  endloop
 endfacet

 facet normal 0.1039262935519218 0 0.9945850372314453
  outer loop
  vertex 0 0 0
  vertex 0.3322339951992035 2.316163063049316 -0.02945500053465366
  vertex 0 2.316163063049316 0
  endloop
 endfacet

endsolid AssimpScene
