# Blender v2.93.2 OBJ File: ''
# www.blender.org
o BezierCurve
v -1.963915 0.000000 0.000000
v -1.963915 0.000000 3.000000
v -1.717857 0.218765 0.000000
v -1.717857 0.218765 3.000000
v -1.468390 0.361595 -0.000000
v -1.468390 0.361595 3.000000
v -1.212104 0.439338 -0.000000
v -1.212104 0.439338 3.000000
v -0.945589 0.462842 0.000000
v -0.945589 0.462841 3.000000
v -0.665435 0.442954 -0.000000
v -0.665435 0.442954 3.000000
v -0.368234 0.390522 0.000000
v -0.368234 0.390522 3.000000
v -0.050575 0.316395 0.000000
v -0.050575 0.316395 3.000000
v 0.290950 0.231420 0.000000
v 0.290950 0.231420 3.000000
v 0.659753 0.146446 -0.000000
v 0.659753 0.146446 3.000000
v 1.059241 0.072319 0.000000
v 1.059241 0.072319 3.000000
v 1.492826 0.019887 0.000000
v 1.492826 0.019887 3.000000
v 1.963915 0.000000 -0.000000
v 1.963915 0.000000 3.000000
v -1.966728 0.115713 0.000000
v -1.966728 0.115713 3.000000
v -1.720671 0.334478 0.000000
v -1.720671 0.334478 3.000000
v -1.471203 0.477308 -0.000000
v -1.471203 0.477307 3.000000
v -1.214917 0.555050 -0.000000
v -1.214917 0.555050 3.000000
v -0.948402 0.578554 0.000000
v -0.948402 0.578554 3.000000
v -0.668248 0.558666 -0.000000
v -0.668248 0.558666 3.000000
v -0.371047 0.506235 0.000000
v -0.371047 0.506235 3.000000
v -0.053388 0.432108 0.000000
v -0.053388 0.432108 3.000000
v 0.288137 0.347133 0.000000
v 0.288137 0.347133 3.000000
v 0.656940 0.262158 -0.000000
v 0.656940 0.262158 3.000000
v 1.056428 0.188031 0.000000
v 1.056428 0.188031 3.000000
v 1.490013 0.135600 0.000000
v 1.490013 0.135600 3.000000
v 1.961102 0.115713 -0.000000
v 1.961102 0.115713 3.000000
vn -0.3330 -0.7665 0.5491
vn -0.3330 -0.7665 -0.5491
vn 0.3983 -0.5539 -0.7311
vn 0.3983 -0.5539 0.7311
vn 0.2693 -0.6243 -0.7333
vn 0.2693 -0.6243 0.7333
vn 0.1297 -0.6699 -0.7310
vn 0.1297 -0.6699 0.7310
vn 0.0059 -0.6883 -0.7254
vn 0.0059 -0.6883 0.7254
vn -0.0851 -0.6898 -0.7190
vn -0.0851 -0.6898 0.7190
vn -0.1405 -0.6866 -0.7133
vn -0.1405 -0.6866 0.7133
vn -0.1653 -0.6858 -0.7087
vn -0.1653 -0.6858 0.7087
vn -0.1652 -0.6895 -0.7051
vn -0.1652 -0.6895 0.7051
vn -0.1449 -0.6970 -0.7023
vn -0.1449 -0.6970 0.7023
vn -0.1080 -0.7058 -0.7001
vn -0.1080 -0.7058 0.7001
vn -0.0581 -0.7133 -0.6984
vn -0.0581 -0.7133 0.6984
vn 0.5738 -0.5842 -0.5739
vn 0.5738 -0.5842 0.5739
vn -0.7170 0.3115 0.6235
vn -0.4255 0.5918 0.6846
vn -0.4255 0.5918 -0.6846
vn -0.7170 0.3115 -0.6235
vn -0.2894 0.6710 0.6826
vn -0.2894 0.6710 -0.6826
vn -0.1385 0.7156 0.6846
vn -0.1385 0.7156 -0.6846
vn -0.0062 0.7241 0.6897
vn -0.0062 0.7241 -0.6897
vn 0.0880 0.7130 0.6956
vn 0.0880 0.7130 -0.6956
vn 0.1430 0.6986 0.7010
vn 0.1430 0.6986 -0.7010
vn 0.1661 0.6890 0.7055
vn 0.1661 0.6890 -0.7055
vn 0.1643 0.6857 0.7091
vn 0.1643 0.6857 -0.7091
vn 0.1429 0.6875 0.7120
vn 0.1429 0.6875 -0.7120
vn 0.1059 0.6918 0.7143
vn 0.1059 0.6918 -0.7143
vn 0.0566 0.6958 0.7160
vn 0.0566 0.6958 -0.7160
vn 0.5807 0.5704 0.5809
vn 0.5807 0.5704 -0.5809
s 1
f 2//1 1//2 3//3 4//4
f 4//4 3//3 5//5 6//6
f 6//6 5//5 7//7 8//8
f 8//8 7//7 9//9 10//10
f 10//10 9//9 11//11 12//12
f 12//12 11//11 13//13 14//14
f 14//14 13//13 15//15 16//16
f 16//16 15//15 17//17 18//18
f 18//18 17//17 19//19 20//20
f 20//20 19//19 21//21 22//22
f 22//22 21//21 23//23 24//24
f 24//24 23//23 25//25 26//26
f 28//27 30//28 29//29 27//30
f 30//28 32//31 31//32 29//29
f 32//31 34//33 33//34 31//32
f 34//33 36//35 35//36 33//34
f 36//35 38//37 37//38 35//36
f 38//37 40//39 39//40 37//38
f 40//39 42//41 41//42 39//40
f 42//41 44//43 43//44 41//42
f 44//43 46//45 45//46 43//44
f 46//45 48//47 47//48 45//46
f 48//47 50//49 49//50 47//48
f 50//49 52//51 51//52 49//50
f 20//20 22//22 48//47 46//45
f 5//5 3//3 29//29 31//32
f 15//15 13//13 39//40 41//42
f 25//25 23//23 49//50 51//52
f 6//6 8//8 34//33 32//31
f 16//16 18//18 44//43 42//41
f 1//2 2//1 28//27 27//30
f 11//11 9//9 35//36 37//38
f 21//21 19//19 45//46 47//48
f 2//1 4//4 30//28 28//27
f 12//12 14//14 40//39 38//37
f 22//22 24//24 50//49 48//47
f 7//7 5//5 31//32 33//34
f 17//17 15//15 41//42 43//44
f 8//8 10//10 36//35 34//33
f 18//18 20//20 46//45 44//43
f 3//3 1//2 27//30 29//29
f 13//13 11//11 37//38 39//40
f 23//23 21//21 47//48 49//50
f 4//4 6//6 32//31 30//28
f 14//14 16//16 42//41 40//39
f 24//24 26//26 52//51 50//49
f 9//9 7//7 33//34 35//36
f 19//19 17//17 43//44 45//46
f 26//26 25//25 51//52 52//51
f 10//10 12//12 38//37 36//35
