solid AssimpScene
 facet normal -0.6114028692245483 0.7913194894790649 0
  outer loop
  vertex -1.96391499042511 0 3
  vertex -1.717857003211975 0.2187650054693222 3
  vertex -1.717857003211975 0.2187650054693222 0
  endloop
 endfacet

 facet normal -0.6383146047592163 0.7697755694389343 0
  outer loop
  vertex -1.96391499042511 0 3
  vertex -1.717857003211975 0.2187650054693222 0
  vertex -1.96391499042511 0 0
  endloop
 endfacet

 facet normal -0.4610583484172821 0.8873698115348816 0
  outer loop
  vertex -1.717857003211975 0.2187650054693222 3
  vertex -1.468389987945557 0.3615950047969818 3
  vertex -1.468389987945557 0.3615950047969818 -0
  endloop
 endfacet

 facet normal -0.5239497423171997 0.8517492413520813 0
  outer loop
  vertex -1.717857003211975 0.2187650054693222 3
  vertex -1.468389987945557 0.3615950047969818 -0
  vertex -1.717857003211975 0.2187650054693222 0
  endloop
 endfacet

 facet normal -0.2601248919963837 0.9655749201774597 0
  outer loop
  vertex -1.468389987945557 0.3615950047969818 3
  vertex -1.212103962898254 0.4393379986286163 3
  vertex -1.212103962898254 0.4393379986286163 -0
  endloop
 endfacet

 facet normal -0.3291456997394562 0.9442791342735291 0
  outer loop
  vertex -1.468389987945557 0.3615950047969818 3
  vertex -1.212103962898254 0.4393379986286163 -0
  vertex -1.468389987945557 0.3615950047969818 -0
  endloop
 endfacet

 facet normal -0.06929470598697662 0.997596263885498 0
  outer loop
  vertex -1.212103962898254 0.4393379986286163 3
  vertex -0.945589005947113 0.4628410041332245 3
  vertex -0.945589005947113 0.4628419876098633 0
  endloop
 endfacet

 facet normal -0.130057230591774 0.9915065169334412 0
  outer loop
  vertex -1.212103962898254 0.4393379986286163 3
  vertex -0.945589005947113 0.4628419876098633 0
  vertex -1.212103962898254 0.4393379986286163 -0
  endloop
 endfacet

 facet normal 0.0789182260632515 0.9968811273574829 0
  outer loop
  vertex -0.945589005947113 0.4628410041332245 3
  vertex -0.6654350161552429 0.4429540038108826 3
  vertex -0.6654350161552429 0.4429540038108826 -0
  endloop
 endfacet

 facet normal 0.03520191088318825 0.9993802309036255 0
  outer loop
  vertex -0.945589005947113 0.4628410041332245 3
  vertex -0.6654350161552429 0.4429540038108826 -0
  vertex -0.945589005947113 0.4628419876098633 0
  endloop
 endfacet

 facet normal 0.1745863854885101 0.9846418499946594 0
  outer loop
  vertex -0.6654350161552429 0.4429540038108826 3
  vertex -0.3682340085506439 0.3905220031738281 3
  vertex -0.3682340085506439 0.3905220031738281 0
  endloop
 endfacet

 facet normal 0.1485345512628555 0.9889072775840759 0
  outer loop
  vertex -0.6654350161552429 0.4429540038108826 3
  vertex -0.3682340085506439 0.3905220031738281 0
  vertex -0.6654350161552429 0.4429540038108826 -0
  endloop
 endfacet

 facet normal 0.2231352627277374 0.9747874736785889 0
  outer loop
  vertex -0.3682340085506439 0.3905220031738281 3
  vertex -0.05057499930262566 0.3163950145244598 3
  vertex -0.05057499930262566 0.3163950145244598 0
  endloop
 endfacet

 facet normal 0.2118302881717682 0.9773064851760864 0
  outer loop
  vertex -0.3682340085506439 0.3905220031738281 3
  vertex -0.05057499930262566 0.3163950145244598 0
  vertex -0.3682340085506439 0.3905220031738281 0
  endloop
 endfacet

 facet normal 0.2334662228822708 0.9723649024963379 0
  outer loop
  vertex -0.05057499930262566 0.3163950145244598 3
  vertex 0.2909500002861023 0.2314199954271317 3
  vertex 0.2909500002861023 0.2314199954271317 0
  endloop
 endfacet

 facet normal 0.2339377105236053 0.9722515940666199 0
  outer loop
  vertex -0.05057499930262566 0.3163950145244598 3
  vertex 0.2909500002861023 0.2314199954271317 0
  vertex -0.05057499930262566 0.3163950145244598 0
  endloop
 endfacet

 facet normal 0.2133498936891556 0.9769758582115173 0
  outer loop
  vertex 0.2909500002861023 0.2314199954271317 3
  vertex 0.6597530245780945 0.1464460045099258 3
  vertex 0.6597530245780945 0.1464460045099258 -0
  endloop
 endfacet

 facet normal 0.2231841385364532 0.9747763872146606 0
  outer loop
  vertex 0.2909500002861023 0.2314199954271317 3
  vertex 0.6597530245780945 0.1464460045099258 -0
  vertex 0.2909500002861023 0.2314199954271317 0
  endloop
 endfacet

 facet normal 0.1687500327825546 0.9856589436531067 0
  outer loop
  vertex 0.6597530245780945 0.1464460045099258 3
  vertex 1.059241056442261 0.07231900095939636 3
  vertex 1.059241056442261 0.07231900095939636 0
  endloop
 endfacet

 facet normal 0.1861544102430344 0.9825204610824585 0
  outer loop
  vertex 0.6597530245780945 0.1464460045099258 3
  vertex 1.059241056442261 0.07231900095939636 0
  vertex 0.6597530245780945 0.1464460045099258 -0
  endloop
 endfacet

 facet normal 0.1045580431818962 0.9945188164710999 0
  outer loop
  vertex 1.059241056442261 0.07231900095939636 3
  vertex 1.492825984954834 0.01988700032234192 3
  vertex 1.492825984954834 0.01988700032234192 0
  endloop
 endfacet

 facet normal 0.1279702931642532 0.9917780756950378 0
  outer loop
  vertex 1.059241056442261 0.07231900095939636 3
  vertex 1.492825984954834 0.01988700032234192 0
  vertex 1.059241056442261 0.07231900095939636 0
  endloop
 endfacet

 facet normal 0.05517642945051193 0.9984766244888306 0
  outer loop
  vertex 1.492825984954834 0.01988700032234192 3
  vertex 1.96391499042511 0 3
  vertex 1.96391499042511 0 -0
  endloop
 endfacet

 facet normal 0.06814531236886978 0.9976754188537598 0
  outer loop
  vertex 1.492825984954834 0.01988700032234192 3
  vertex 1.96391499042511 0 -0
  vertex 1.492825984954834 0.01988700032234192 0
  endloop
 endfacet

endsolid AssimpScene
